<?xml version="1.0" encoding="UTF-8" standalone="no"?>
<svg
   xmlns:dc="http://purl.org/dc/elements/1.1/"
   xmlns:cc="http://creativecommons.org/ns#"
   xmlns:rdf="http://www.w3.org/1999/02/22-rdf-syntax-ns#"
   xmlns:svg="http://www.w3.org/2000/svg"
   xmlns="http://www.w3.org/2000/svg"
   xmlns:sodipodi="http://sodipodi.sourceforge.net/DTD/sodipodi-0.dtd"
   xmlns:inkscape="http://www.inkscape.org/namespaces/inkscape"
   class="app-icon"
   viewBox="0 0 64 64"
   version="1.1"
   id="svg8"
   sodipodi:docname="cashapp.svg"
   width="64"
   height="64"
   inkscape:version="0.92.4 (5da689c313, 2019-01-14)">
  <metadata
     id="metadata14">
    <rdf:RDF>
      <cc:Work
         rdf:about="">
        <dc:format>image/svg+xml</dc:format>
        <dc:type
           rdf:resource="http://purl.org/dc/dcmitype/StillImage" />
      </cc:Work>
    </rdf:RDF>
  </metadata>
  <defs
     id="defs12" />
  <sodipodi:namedview
     pagecolor="#ffffff"
     bordercolor="#666666"
     borderopacity="1"
     objecttolerance="10"
     gridtolerance="10"
     guidetolerance="10"
     inkscape:pageopacity="0"
     inkscape:pageshadow="2"
     inkscape:window-width="2560"
     inkscape:window-height="1334"
     id="namedview10"
     showgrid="false"
     inkscape:zoom="3.6875"
     inkscape:cx="32"
     inkscape:cy="32"
     inkscape:window-x="-11"
     inkscape:window-y="-11"
     inkscape:window-maximized="1"
     inkscape:current-layer="svg8" />
  <g
     id="g6"
     style="fill:#ffffff;fill-rule:nonzero">
    <path
       d="m 41.7,0 c 6.4,0 9.6,0 13.1,1.1 a 13.6,13.6 0 0 1 8.1,8.1 C 64,12.7 64,15.9 64,22.31 v 19.37 c 0,6.42 0,9.64 -1.1,13.1 a 13.6,13.6 0 0 1 -8.1,8.1 C 51.3,64 48.1,64 41.7,64 H 22.3 C 15.88,64 12.66,64 9.2,62.9 A 13.6,13.6 0 0 1 1.1,54.8 C 0,51.3 0,48.1 0,41.69 V 22.3 C 0,15.88 0,12.66 1.1,9.2 A 13.6,13.6 0 0 1 9.2,1.1 C 12.7,0 15.9,0 22.3,0 Z"
       id="path2"
       inkscape:connector-curvature="0"
       style="fill:#00d632" />
    <path
       d="m 42.47,23.8 c 0.5,0.5 1.33,0.5 1.8,0 l 2.5,-2.6 c 0.53,-0.5 0.5,-1.4 -0.06,-1.94 a 19.73,19.73 0 0 0 -6.72,-3.84 l 0.79,-3.8 c 0.17,-0.83 -0.45,-1.61 -1.28,-1.61 h -4.84 a 1.32,1.32 0 0 0 -1.28,1.06 l -0.7,3.38 c -6.44,0.33 -11.9,3.6 -11.9,10.3 0,5.8 4.51,8.29 9.28,10 4.51,1.72 6.9,2.36 6.9,4.78 0,2.49 -2.38,3.95 -5.9,3.95 -3.2,0 -6.56,-1.07 -9.16,-3.68 a 1.3,1.3 0 0 0 -1.84,0 l -2.7,2.7 a 1.36,1.36 0 0 0 0,1.92 c 2.1,2.07 4.76,3.57 7.792,4.4 l -0.74,3.57 c -0.17,0.83 0.44,1.6 1.27,1.61 l 4.85,0.04 a 1.32,1.32 0 0 0 1.3,-1.06 l 0.7,-3.39 C 40.28,49.07 45,44.8 45,38.57 45,32.83 40.3,30.41 34.6,28.44 31.34,27.23 28.52,26.4 28.52,23.91 c 0,-2.42 2.63,-3.38 5.27,-3.38 3.36,0 6.59,1.39 8.7,3.29 z"
       id="path4"
       inkscape:connector-curvature="0"
       style="fill:#ffffff" />
  </g>
</svg>
