<?xml version="1.0" encoding="UTF-8" standalone="no"?>
<!-- Generator: Adobe Illustrator 16.0.4, SVG Export Plug-In . SVG Version: 6.00 Build 0)  -->

<svg
   xmlns:dc="http://purl.org/dc/elements/1.1/"
   xmlns:cc="http://creativecommons.org/ns#"
   xmlns:rdf="http://www.w3.org/1999/02/22-rdf-syntax-ns#"
   xmlns:svg="http://www.w3.org/2000/svg"
   xmlns="http://www.w3.org/2000/svg"
   xmlns:sodipodi="http://sodipodi.sourceforge.net/DTD/sodipodi-0.dtd"
   xmlns:inkscape="http://www.inkscape.org/namespaces/inkscape"
   version="1.1"
   id="Layer_1"
   x="0px"
   y="0px"
   width="30.177"
   height="30.177"
   viewBox="0 0 30.177 30.177"
   enable-background="new 0 0 124 33"
   xml:space="preserve"
   sodipodi:docname="paypal.svg"
   inkscape:version="0.92.4 (5da689c313, 2019-01-14)"><metadata
   id="metadata62"><rdf:RDF><cc:Work
       rdf:about=""><dc:format>image/svg+xml</dc:format><dc:type
         rdf:resource="http://purl.org/dc/dcmitype/StillImage" /><dc:title></dc:title></cc:Work></rdf:RDF></metadata><defs
   id="defs60" /><sodipodi:namedview
   pagecolor="#ffffff"
   bordercolor="#666666"
   borderopacity="1"
   objecttolerance="10"
   gridtolerance="10"
   guidetolerance="10"
   inkscape:pageopacity="0"
   inkscape:pageshadow="2"
   inkscape:window-width="2560"
   inkscape:window-height="1334"
   id="namedview58"
   showgrid="false"
   inkscape:zoom="19.282258"
   inkscape:cx="52.353816"
   inkscape:cy="13.677"
   inkscape:window-x="-11"
   inkscape:window-y="-11"
   inkscape:window-maximized="1"
   inkscape:current-layer="Layer_1" />






<path
   d="M 9.5663124,29.154 10.089312,25.832 8.9243124,25.805 h -5.563 l 3.866,-24.5130001 c 0.012,-0.074 0.051,-0.143 0.108,-0.192 0.057,-0.049 0.13,-0.076 0.206,-0.076 h 9.3800006 c 3.114,0 5.263,0.648 6.385,1.927 0.526,0.6 0.861,1.227 1.023,1.917 0.17,0.724 0.173,1.589 0.007,2.644 l -0.012,0.077 v 0.676 l 0.526,0.298 c 0.443,0.235 0.795,0.504 1.065,0.812 0.45,0.513 0.741,1.1650001 0.864,1.9380001 0.127,0.795 0.085,1.741 -0.123,2.812 -0.24,1.232 -0.628,2.305 -1.152,3.183 -0.482,0.809 -1.096,1.48 -1.825,2 -0.696,0.494 -1.523,0.869 -2.458,1.109 -0.906,0.236 -1.939,0.355 -3.072,0.355 h -0.73 c -0.522,0 -1.029,0.188 -1.427,0.525 -0.399,0.344 -0.663,0.814 -0.744,1.328 l -0.055,0.299 -0.924,5.855 -0.042,0.215 c -0.011,0.068 -0.03,0.102 -0.058,0.125 -0.025,0.021 -0.061,0.035 -0.096,0.035 z"
   id="path49"
   inkscape:connector-curvature="0"
   style="fill:#253b80" />
<path
   d="m 25.348313,7.6669999 v 0 0 c -0.028,0.179 -0.06,0.362 -0.096,0.55 -1.237,6.3510001 -5.469,8.5450001 -10.874,8.5450001 h -2.752001 c -0.661,0 -1.218,0.48 -1.321,1.132 v 0 0 l -1.4089996,8.936 -0.399,2.533 c -0.067,0.428 0.263,0.814 0.695,0.814 h 4.8810006 c 0.578,0 1.069,-0.42 1.16,-0.99 l 0.048,-0.248 0.919,-5.832 0.059,-0.32 c 0.09,-0.572 0.582,-0.992 1.16,-0.992 h 0.73 c 4.729,0 8.431,-1.92 9.513,-7.476 0.452,-2.321 0.218,-4.259 -0.978,-5.6220001 -0.362,-0.411 -0.811,-0.752 -1.336,-1.03 z"
   id="path51"
   inkscape:connector-curvature="0"
   style="fill:#179bd7" />
<path
   d="m 24.054313,7.1509999 c -0.189,-0.055 -0.384,-0.105 -0.584,-0.15 -0.201,-0.044 -0.407,-0.083 -0.619,-0.117 -0.742,-0.12 -1.555,-0.177 -2.426,-0.177 h -7.352 c -0.181,0 -0.353,0.041 -0.507,0.115 -0.339001,0.163 -0.591001,0.484 -0.652001,0.877 l -1.564,9.9060001 -0.045,0.289 c 0.103,-0.652 0.66,-1.132 1.321,-1.132 h 2.752001 c 5.405,0 9.637,-2.195 10.874,-8.5450001 0.037,-0.188 0.068,-0.371 0.096,-0.55 -0.313,-0.166 -0.652,-0.308 -1.017,-0.429 -0.09,-0.03 -0.183,-0.059 -0.277,-0.087 z"
   id="path53"
   inkscape:connector-curvature="0"
   style="fill:#222d65" />
<path
   d="m 11.914312,7.699 c 0.061,-0.393 0.313,-0.714 0.652001,-0.876 0.155,-0.074 0.326,-0.115 0.507,-0.115 h 7.352 c 0.871,0 1.684,0.057 2.426,0.177 0.212,0.034 0.418,0.073 0.619,0.117 0.2,0.045 0.395,0.095 0.584,0.15 0.094,0.028 0.187,0.057 0.278,0.086 0.365,0.121 0.704,0.264 1.017,0.429 0.368,-2.347 -0.003,-3.945 -1.272,-5.392 C 22.678313,0.6819999 20.153313,-9.1552736e-8 16.922313,-9.1552736e-8 H 7.5423124 c -0.66,0 -1.223,0.479999991552736 -1.325,1.133000091552736 l -3.907,24.765 c -0.077,0.49 0.301,0.932 0.795,0.932 h 5.791 l 1.4539996,-9.225 z"
   id="path55"
   inkscape:connector-curvature="0"
   style="fill:#253b80" />
</svg>